<svg xmlns="http://www.w3.org/2000/svg" viewBox="0 0 920 520" role="img" aria-labelledby="title desc">
<title id="title">One quadratic shown in standard, factored, and vertex form</title>
<desc id="desc">The exact graph of y equals x squared minus 6x plus 5, with roots one and five, vertex three negative four, and axis of symmetry x equals three.</desc>
<style>
.grid{stroke:#e2e8f0;stroke-width:1}.axis{stroke:#64748b;stroke-width:2}.dash{stroke:#94a3b8;stroke-width:2;stroke-dasharray:7 7}
.label{font:bold 16px Arial,sans-serif}.small{font:bold 14px Arial,sans-serif}
</style>
<defs><clipPath id="plot"><rect x="80" y="45" width="780" height="410"/></clipPath></defs>
<rect width="920" height="520" fill="white"/>
<line x1="80.0" y1="45" x2="80.0" y2="455" class="grid"/><line x1="177.5" y1="45" x2="177.5" y2="455" class="grid"/><line x1="275.0" y1="45" x2="275.0" y2="455" class="grid"/><line x1="372.5" y1="45" x2="372.5" y2="455" class="grid"/><line x1="470.0" y1="45" x2="470.0" y2="455" class="grid"/><line x1="567.5" y1="45" x2="567.5" y2="455" class="grid"/><line x1="665.0" y1="45" x2="665.0" y2="455" class="grid"/><line x1="762.5" y1="45" x2="762.5" y2="455" class="grid"/><line x1="860.0" y1="45" x2="860.0" y2="455" class="grid"/><line x1="80" y1="455.0" x2="860" y2="455.0" class="grid"/><line x1="80" y1="396.4" x2="860" y2="396.4" class="grid"/><line x1="80" y1="337.9" x2="860" y2="337.9" class="grid"/><line x1="80" y1="279.3" x2="860" y2="279.3" class="grid"/><line x1="80" y1="220.7" x2="860" y2="220.7" class="grid"/><line x1="80" y1="162.1" x2="860" y2="162.1" class="grid"/><line x1="80" y1="103.6" x2="860" y2="103.6" class="grid"/><line x1="80" y1="45.0" x2="860" y2="45.0" class="grid"/>
<line x1="80" y1="279.3" x2="860" y2="279.3" class="axis"/>
<line x1="177.5" y1="45" x2="177.5" y2="455" class="axis"/>
<line x1="470.0" y1="45" x2="470.0" y2="455" class="dash"/>
<polyline points="80.0,-72.1 82.4,-66.3 84.9,-60.5 87.3,-54.7 89.8,-49.0 92.2,-43.3 94.6,-37.7 97.1,-32.0 99.5,-26.5 101.9,-20.9 104.4,-15.4 106.8,-9.9 109.3,-4.5 111.7,0.9 114.1,6.3 116.6,11.6 119.0,16.9 121.4,22.1 123.9,27.4 126.3,32.5 128.8,37.7 131.2,42.8 133.6,47.9 136.1,52.9 138.5,57.9 140.9,62.8 143.4,67.8 145.8,72.7 148.3,77.5 150.7,82.3 153.1,87.1 155.6,91.8 158.0,96.5 160.4,101.2 162.9,105.8 165.3,110.4 167.8,115.0 170.2,119.5 172.6,124.0 175.1,128.4 177.5,132.9 179.9,137.2 182.4,141.6 184.8,145.9 187.3,150.1 189.7,154.4 192.1,158.6 194.6,162.7 197.0,166.8 199.4,170.9 201.9,175.0 204.3,179.0 206.8,182.9 209.2,186.9 211.6,190.8 214.1,194.6 216.5,198.5 218.9,202.2 221.4,206.0 223.8,209.7 226.3,213.4 228.7,217.0 231.1,220.6 233.6,224.2 236.0,227.7 238.4,231.2 240.9,234.7 243.3,238.1 245.8,241.5 248.2,244.9 250.6,248.2 253.1,251.4 255.5,254.7 257.9,257.9 260.4,261.1 262.8,264.2 265.3,267.3 267.7,270.3 270.1,273.4 272.6,276.3 275.0,279.3 277.4,282.2 279.9,285.1 282.3,287.9 284.8,290.7 287.2,293.5 289.6,296.2 292.1,298.9 294.5,301.5 296.9,304.2 299.4,306.7 301.8,309.3 304.3,311.8 306.7,314.3 309.1,316.7 311.6,319.1 314.0,321.5 316.4,323.8 318.9,326.1 321.3,328.3 323.8,330.5 326.2,332.7 328.6,334.9 331.1,337.0 333.5,339.0 335.9,341.1 338.4,343.1 340.8,345.0 343.3,346.9 345.7,348.8 348.1,350.7 350.6,352.5 353.0,354.3 355.4,356.0 357.9,357.7 360.3,359.4 362.8,361.0 365.2,362.6 367.6,364.1 370.1,365.7 372.5,367.1 374.9,368.6 377.4,370.0 379.8,371.4 382.3,372.7 384.7,374.0 387.1,375.3 389.6,376.5 392.0,377.7 394.4,378.8 396.9,380.0 399.3,381.0 401.8,382.1 404.2,383.1 406.6,384.1 409.1,385.0 411.5,385.9 413.9,386.7 416.4,387.6 418.8,388.4 421.3,389.1 423.7,389.8 426.1,390.5 428.6,391.1 431.0,391.7 433.4,392.3 435.9,392.8 438.3,393.3 440.8,393.8 443.2,394.2 445.6,394.6 448.1,394.9 450.5,395.3 452.9,395.5 455.4,395.8 457.8,396.0 460.3,396.1 462.7,396.3 465.1,396.4 467.6,396.4 470.0,396.4 472.4,396.4 474.9,396.4 477.3,396.3 479.7,396.1 482.2,396.0 484.6,395.8 487.1,395.5 489.5,395.3 491.9,394.9 494.4,394.6 496.8,394.2 499.3,393.8 501.7,393.3 504.1,392.8 506.6,392.3 509.0,391.7 511.4,391.1 513.9,390.5 516.3,389.8 518.8,389.1 521.2,388.4 523.6,387.6 526.1,386.7 528.5,385.9 530.9,385.0 533.4,384.1 535.8,383.1 538.3,382.1 540.7,381.0 543.1,380.0 545.6,378.8 548.0,377.7 550.4,376.5 552.9,375.3 555.3,374.0 557.8,372.7 560.2,371.4 562.6,370.0 565.1,368.6 567.5,367.1 569.9,365.7 572.4,364.1 574.8,362.6 577.3,361.0 579.7,359.4 582.1,357.7 584.6,356.0 587.0,354.3 589.4,352.5 591.9,350.7 594.3,348.8 596.8,346.9 599.2,345.0 601.6,343.1 604.1,341.1 606.5,339.0 608.9,337.0 611.4,334.9 613.8,332.7 616.3,330.5 618.7,328.3 621.1,326.1 623.6,323.8 626.0,321.5 628.4,319.1 630.9,316.7 633.3,314.3 635.8,311.8 638.2,309.3 640.6,306.7 643.1,304.2 645.5,301.5 647.9,298.9 650.4,296.2 652.8,293.5 655.3,290.7 657.7,287.9 660.1,285.1 662.6,282.2 665.0,279.3 667.4,276.3 669.9,273.4 672.3,270.3 674.8,267.3 677.2,264.2 679.6,261.1 682.1,257.9 684.5,254.7 686.9,251.4 689.4,248.2 691.8,244.9 694.3,241.5 696.7,238.1 699.1,234.7 701.6,231.2 704.0,227.7 706.4,224.2 708.9,220.6 711.3,217.0 713.8,213.4 716.2,209.7 718.6,206.0 721.1,202.2 723.5,198.5 725.9,194.6 728.4,190.8 730.8,186.9 733.3,182.9 735.7,179.0 738.1,175.0 740.6,170.9 743.0,166.8 745.4,162.7 747.9,158.6 750.3,154.4 752.8,150.1 755.2,145.9 757.6,141.6 760.1,137.2 762.5,132.9 764.9,128.4 767.4,124.0 769.8,119.5 772.3,115.0 774.7,110.4 777.1,105.8 779.6,101.2 782.0,96.5 784.4,91.8 786.9,87.1 789.3,82.3 791.8,77.5 794.2,72.7 796.6,67.8 799.1,62.8 801.5,57.9 803.9,52.9 806.4,47.9 808.8,42.8 811.3,37.7 813.7,32.5 816.1,27.4 818.6,22.1 821.0,16.9 823.4,11.6 825.9,6.3 828.3,0.9 830.8,-4.5 833.2,-9.9 835.6,-15.4 838.1,-20.9 840.5,-26.5 842.9,-32.0 845.4,-37.7 847.8,-43.3 850.3,-49.0 852.7,-54.7 855.1,-60.5 857.6,-66.3 860.0,-72.1" fill="none" stroke="#2563eb" stroke-width="5" stroke-linecap="round" stroke-linejoin="round" clip-path="url(#plot)"/>
<circle cx="275.0" cy="279.3" r="7" fill="#2563eb"/>
<circle cx="665.0" cy="279.3" r="7" fill="#2563eb"/>
<circle cx="470.0" cy="396.4" r="7" fill="#111827"/>
<text x="259.0" y="265.3" class="small" fill="#2563eb">root x = 1</text>
<text x="649.0" y="265.3" class="small" fill="#2563eb">root x = 5</text>
<text x="482.0" y="414.4" class="small" fill="#111827">vertex (3, −4)</text>
<text x="480.0" y="65" class="small" fill="#64748b">axis x = 3</text>
<rect x="525" y="82" width="315" height="116" rx="16" fill="#eff6ff" stroke="#bfdbfe"/>
<text x="545" y="112" class="label" fill="#1d4ed8">Standard: y = x² − 6x + 5</text>
<text x="545" y="142" class="label" fill="#1d4ed8">Factored: y = (x − 1)(x − 5)</text>
<text x="545" y="172" class="label" fill="#1d4ed8">Vertex: y = (x − 3)² − 4</text>
<text x="875" y="284.3" class="label">x</text>
<text x="187.5" y="60" class="label">y</text>
</svg>