<svg xmlns="http://www.w3.org/2000/svg" viewBox="0 0 900 520" role="img">
<rect width="900" height="520" fill="white"/>
<g stroke="#dbe3ee" stroke-width="1">
<line x1="80" y1="40" x2="80" y2="455"/><line x1="176.875" y1="40" x2="176.875" y2="455"/><line x1="273.75" y1="40" x2="273.75" y2="455"/><line x1="370.625" y1="40" x2="370.625" y2="455"/><line x1="467.5" y1="40" x2="467.5" y2="455"/><line x1="564.375" y1="40" x2="564.375" y2="455"/><line x1="661.25" y1="40" x2="661.25" y2="455"/><line x1="758.125" y1="40" x2="758.125" y2="455"/><line x1="855" y1="40" x2="855" y2="455"/>
<line x1="80" y1="55" x2="855" y2="55"/><line x1="80" y1="130" x2="855" y2="130"/><line x1="80" y1="205" x2="855" y2="205"/><line x1="80" y1="280" x2="855" y2="280"/><line x1="80" y1="355" x2="855" y2="355"/><line x1="80" y1="430" x2="855" y2="430"/>
</g>
<line x1="80" y1="280" x2="855" y2="280" stroke="#64748b" stroke-width="2"/>
<line x1="177" y1="40" x2="177" y2="455" stroke="#64748b" stroke-width="2"/>
<path d="M80 130 Q370 490 660 130" fill="none" stroke="#2563eb" stroke-width="5"/>
<path d="M80 205 Q370 415 660 205" fill="none" stroke="#059669" stroke-width="5"/>
<path d="M80 280 Q370 340 660 280" fill="none" stroke="#ea580c" stroke-width="5"/>
<text x="610" y="90" font-family="Arial" font-size="18" font-weight="700" fill="#2563eb">D &gt; 0: two real roots</text>
<text x="610" y="125" font-family="Arial" font-size="18" font-weight="700" fill="#059669">D = 0: one repeated root</text>
<text x="610" y="160" font-family="Arial" font-size="18" font-weight="700" fill="#ea580c">D &lt; 0: no real roots</text>
<text x="785" y="500" font-family="Arial" font-size="16" fill="#334155">x</text>
<text x="190" y="58" font-family="Arial" font-size="16" fill="#334155">y</text>
</svg>